<?xml version="1.0" standalone="no"?>
<!DOCTYPE svg PUBLIC "-//W3C//DTD SVG 20010904//EN"
 "http://www.w3.org/TR/2001/REC-SVG-20010904/DTD/svg10.dtd">
<svg version="1.0" xmlns="http://www.w3.org/2000/svg"
 width="360.000000pt" height="360.000000pt" viewBox="0 0 360.000000 360.000000"
 preserveAspectRatio="xMidYMid meet">
<metadata>
Created by potrace 1.11, written by Peter Selinger 2001-2013
</metadata>
<g transform="translate(0.000000,360.000000) scale(0.100000,-0.100000)"
fill="#000000" stroke="none">
<path d="M1608 3590 c-2 -6 -47 -17 -100 -25 -53 -8 -108 -19 -123 -25 -14 -5
-39 -10 -54 -10 -31 0 -97 -25 -121 -45 -8 -7 -26 -16 -40 -19 -74 -20 -206
-80 -275 -125 -22 -14 -57 -35 -78 -46 -21 -11 -55 -36 -76 -55 -22 -19 -63
-53 -92 -75 -60 -45 -159 -141 -204 -198 -16 -21 -54 -65 -83 -99 -30 -33 -60
-74 -68 -91 -8 -18 -23 -45 -34 -62 -25 -40 -90 -169 -90 -181 -1 -5 -9 -27
-20 -49 -11 -22 -20 -44 -20 -50 0 -5 -14 -37 -30 -69 -17 -32 -30 -68 -30
-78 0 -11 -7 -47 -15 -79 -9 -32 -20 -93 -25 -136 -6 -42 -15 -82 -20 -87 -13
-13 -13 -359 0 -372 6 -6 15 -48 21 -93 5 -46 16 -109 24 -139 8 -31 15 -64
15 -74 0 -10 13 -46 30 -81 16 -34 46 -105 66 -157 20 -52 54 -122 75 -156 21
-34 48 -82 60 -106 12 -23 40 -64 63 -89 43 -48 59 -66 117 -140 20 -25 76
-76 124 -115 48 -38 103 -83 121 -101 57 -55 267 -171 394 -218 25 -9 67 -28
94 -42 52 -27 217 -66 328 -78 37 -3 70 -11 73 -16 8 -12 362 -12 369 0 3 5
34 12 68 16 117 12 270 47 317 72 25 13 73 34 106 45 61 21 183 81 289 142 86
50 314 245 377 322 30 37 72 88 95 113 23 25 54 69 69 96 15 28 44 79 65 115
20 36 52 103 70 150 18 47 45 112 60 145 27 60 64 220 75 328 4 31 11 57 16
57 12 0 12 377 0 385 -5 3 -12 31 -16 63 -12 107 -48 257 -76 317 -15 33 -44
102 -64 153 -42 108 -158 306 -207 355 -18 18 -58 64 -88 103 -30 39 -79 90
-109 115 -29 24 -59 49 -65 54 -6 6 -29 24 -51 40 -22 17 -49 40 -60 53 -21
23 -213 136 -280 164 -22 9 -69 28 -105 42 -36 14 -87 37 -114 51 -27 14 -61
25 -75 25 -14 0 -42 5 -61 10 -19 6 -78 17 -130 25 -52 8 -96 19 -98 25 -5 14
-379 14 -384 0z m487 -223 c216 -42 467 -158 658 -305 89 -68 264 -249 312
-322 51 -79 125 -201 125 -206 0 -2 21 -47 46 -99 25 -53 52 -119 59 -148 7
-28 22 -87 34 -131 56 -212 45 -590 -23 -791 -8 -22 -20 -60 -27 -85 -7 -25
-30 -76 -51 -113 -21 -38 -38 -73 -38 -79 0 -11 -68 -124 -132 -218 -67 -99
-248 -277 -358 -350 -136 -92 -162 -107 -190 -115 -14 -5 -41 -18 -61 -31 -48
-30 -94 -49 -207 -85 -238 -77 -545 -85 -821 -23 -79 18 -251 73 -267 86 -6 4
-45 25 -85 44 -41 20 -110 60 -154 88 -44 29 -91 60 -105 69 -14 8 -77 67
-140 129 -80 79 -135 143 -181 213 -87 133 -153 250 -172 305 -9 25 -22 59
-31 76 -9 16 -27 77 -40 135 -92 386 -38 857 130 1135 19 31 34 58 34 60 0 2
25 40 55 84 30 44 55 84 55 90 0 17 234 243 298 287 34 24 65 43 68 43 2 0 14
8 24 18 26 24 202 122 260 145 112 44 224 77 311 91 52 8 105 17 119 20 55 10
418 -3 495 -17z"/>
<path d="M1645 3314 c-87 -6 -229 -34 -299 -60 -34 -12 -95 -34 -136 -49 -41
-16 -80 -32 -86 -36 -6 -5 -46 -27 -90 -50 -267 -139 -554 -461 -638 -716 -10
-29 -21 -55 -26 -58 -22 -13 -71 -210 -95 -377 -20 -139 -19 -190 5 -355 33
-231 58 -310 168 -528 69 -137 214 -322 242 -310 8 3 36 50 62 103 26 53 63
115 82 137 20 22 36 45 36 50 0 6 30 57 66 115 37 58 80 128 96 155 17 28 47
69 67 91 20 23 46 57 59 75 60 91 148 208 178 239 19 19 54 63 79 96 l45 62 2
618 3 619 92 3 c86 3 93 1 104 -20 9 -17 10 -131 5 -478 -4 -250 -4 -463 0
-473 6 -16 12 -13 51 25 77 74 73 49 73 511 0 308 3 416 12 425 7 7 45 12 99
12 70 0 88 -3 93 -16 3 -9 6 -159 6 -333 0 -175 3 -320 6 -324 10 -10 73 29
144 88 36 30 81 62 100 72 19 10 67 37 107 61 39 23 74 42 77 42 3 0 40 20 82
45 41 25 77 45 80 45 2 0 32 14 66 30 93 45 169 36 80 -9 -22 -11 -59 -35 -83
-53 -24 -18 -64 -46 -89 -62 -172 -112 -169 -110 -334 -271 -62 -60 -126 -132
-142 -160 -15 -27 -33 -54 -40 -60 -6 -5 -21 -27 -34 -48 l-22 -38 -6 -849 -5
-848 -21 -6 c-12 -3 -47 -6 -78 -6 -45 0 -63 5 -78 20 -19 19 -20 33 -20 535
0 451 -2 515 -15 515 -8 0 -15 -4 -15 -9 0 -5 -21 -40 -47 -78 l-48 -68 -3
-444 c-2 -303 -6 -449 -14 -458 -14 -17 -159 -18 -176 -1 -9 9 -12 104 -12
365 0 330 -1 353 -17 353 -10 0 -31 -9 -48 -20 -16 -11 -37 -20 -45 -20 -8 0
-75 -30 -150 -66 -197 -97 -345 -190 -443 -280 -40 -37 -46 -46 -36 -61 27
-41 173 -155 294 -230 36 -22 164 -83 175 -83 6 0 39 -13 75 -29 134 -61 251
-82 485 -88 169 -5 248 3 390 37 90 22 234 76 310 117 30 17 66 34 80 38 14 4
32 13 40 20 8 8 29 21 45 29 63 32 266 219 355 326 87 105 212 333 246 450 7
25 25 83 39 130 42 140 56 350 35 561 -10 109 -90 366 -140 456 -17 29 -30 57
-30 62 0 19 -78 143 -131 208 -104 129 -140 163 -169 163 -22 0 -27 4 -23 18
3 13 -5 25 -23 37 -15 10 -38 31 -51 46 -13 16 -56 50 -96 76 -73 49 -252 142
-274 143 -6 0 -46 14 -89 31 -136 55 -405 86 -619 73z"/>
</g>
</svg>
